<svg width="10" height="16" viewBox="0 0 10 16" fill="none" xmlns="http://www.w3.org/2000/svg">
<path d="M1.66565 15.1001L1.66556 15.1002C1.39853 15.3513 0.95375 15.3511 0.687068 15.1002L0.686891 15.1001C0.437694 14.8659 0.437716 14.4995 0.686877 14.2653L0.686886 14.2653L7.07796 8.25845L7.4656 7.89411L7.07796 7.52978L0.687151 1.52321C0.687124 1.52319 0.687098 1.52316 0.687071 1.52314C0.437822 1.28869 0.437958 0.922366 0.687077 0.688217L0.687151 0.688148C0.953906 0.437321 1.39879 0.437224 1.66583 0.688217L1.66583 0.68822L8.88856 7.47681C9.01725 7.59783 9.07541 7.74854 9.07541 7.89408C9.07541 8.03965 9.01711 8.19055 8.88847 8.3115C8.88845 8.31151 8.88844 8.31152 8.88843 8.31153L1.66565 15.1001Z" fill="#E8AA31" stroke="black"/>
</svg>
